HIERARCHY
ROOT Hips
{
	OFFSET 0.000000 71.427986 0.000000
	CHANNELS 6 Xposition Yposition Zposition Xrotation Yrotation Zrotation
	JOINT Pelvis
	{
		OFFSET 0.000000 0.000000 0.000000
		CHANNELS 3 Xrotation Yrotation Zrotation
		JOINT LeftUpLeg
		{
			OFFSET 6.797100 -2.508499 -1.318700
			CHANNELS 3 Xrotation Yrotation Zrotation
			JOINT LeftLeg
			{
				OFFSET 0.069008 -29.241863 0.690200
				CHANNELS 3 Xrotation Yrotation Zrotation
				JOINT LeftFoot
				{
					OFFSET -0.069008 -29.568123 -0.266800
					CHANNELS 3 Xrotation Yrotation Zrotation
					JOINT LeftToeBase
					{
						OFFSET 3.145500 -8.631000 16.059900
						CHANNELS 3 Xrotation Yrotation Zrotation
						End Site
						{
							OFFSET 0.000000 18.501587 0.000000
						}
					}
				}
			}
			JOINT Left_ShortSleeve
			{
				OFFSET 0.265923 -10.480953 1.153800
				CHANNELS 3 Xrotation Yrotation Zrotation
				End Site
				{
					OFFSET 1.725763 19.823879 0.000000
				}
			}
		}
		JOINT RightUpLeg
		{
			OFFSET -6.797100 -2.508499 -1.318700
			CHANNELS 3 Xrotation Yrotation Zrotation
			JOINT RightLeg
			{
				OFFSET -0.082453 -29.241932 0.688000
				CHANNELS 3 Xrotation Yrotation Zrotation
				JOINT RightFoot
				{
					OFFSET 0.082453 -29.568058 -0.264600
					CHANNELS 3 Xrotation Yrotation Zrotation
					JOINT RightToeBase
					{
						OFFSET -3.115300 -8.682800 16.113400
						CHANNELS 3 Xrotation Yrotation Zrotation
						End Site
						{
							OFFSET 0.000000 18.567114 0.000000
						}
					}
				}
			}
			JOINT Right_ShortSleeve
			{
				OFFSET -0.265923 -10.480953 1.153800
				CHANNELS 3 Xrotation Yrotation Zrotation
				End Site
				{
					OFFSET -1.725766 19.823910 0.000000
				}
			}
		}
	}
	JOINT Spine
	{
		OFFSET 0.000000 13.368103 0.470500
		CHANNELS 3 Xrotation Yrotation Zrotation
		JOINT Spine1
		{
			OFFSET 0.147000 13.837402 0.538800
			CHANNELS 3 Xrotation Yrotation Zrotation
			JOINT Spine2
			{
				OFFSET 0.168000 16.242897 -1.435500
				CHANNELS 3 Xrotation Yrotation Zrotation
				JOINT Neck
				{
					OFFSET 0.217200 18.631500 -1.679100
					CHANNELS 3 Xrotation Yrotation Zrotation
					JOINT Head
					{
						OFFSET 0.000000 6.599396 1.385900
						CHANNELS 3 Xrotation Yrotation Zrotation
						JOINT Hat
						{
							OFFSET -0.532200 27.220596 -10.096100
							CHANNELS 3 Xrotation Yrotation Zrotation
							End Site
							{
								OFFSET 0.000000 22.029861 0.000000
							}
						}
						JOINT HairD
						{
							OFFSET -10.777400 17.437393 -1.325900
							CHANNELS 3 Xrotation Yrotation Zrotation
							JOINT HairD1
							{
								OFFSET -3.290299 -11.051193 1.062200
								CHANNELS 3 Xrotation Yrotation Zrotation
								End Site
								{
									OFFSET 0.000000 11.579437 0.000000
								}
							}
						}
						JOINT HairB
						{
							OFFSET -10.777400 17.437393 1.467900
							CHANNELS 3 Xrotation Yrotation Zrotation
							JOINT HairB1
							{
								OFFSET -1.561200 -12.956299 3.590200
								CHANNELS 3 Xrotation Yrotation Zrotation
								End Site
								{
									OFFSET 0.000000 13.534866 0.000000
								}
							}
						}
						JOINT HairA
						{
							OFFSET 9.713100 17.437393 1.467900
							CHANNELS 3 Xrotation Yrotation Zrotation
							JOINT HairA1
							{
								OFFSET 1.561200 -12.956299 3.590200
								CHANNELS 3 Xrotation Yrotation Zrotation
								End Site
								{
									OFFSET 0.000000 13.534866 0.000000
								}
							}
						}
						JOINT HairC
						{
							OFFSET 9.713100 17.437393 -1.325900
							CHANNELS 3 Xrotation Yrotation Zrotation
							JOINT HairC1
							{
								OFFSET 3.290300 -11.051193 1.062200
								CHANNELS 3 Xrotation Yrotation Zrotation
								End Site
								{
									OFFSET 0.000000 11.579437 0.000000
								}
							}
						}
					}
				}
				JOINT LeftShoulder
				{
					OFFSET 5.101800 15.108002 -2.763700
					CHANNELS 3 Xrotation Yrotation Zrotation
					JOINT LeftArm
					{
						OFFSET 9.825497 2.506317 -1.597400
						CHANNELS 3 Xrotation Yrotation Zrotation
						JOINT LeftForeArm
						{
							OFFSET 21.966244 0.000000 0.000000
							CHANNELS 3 Xrotation Yrotation Zrotation
							JOINT LeftHand
							{
								OFFSET 33.879036 0.000000 0.000000
								CHANNELS 3 Xrotation Yrotation Zrotation
								JOINT LeftHandThumb1
								{
									OFFSET 6.715286 -2.359680 3.363841
									CHANNELS 3 Xrotation Yrotation Zrotation
									JOINT LeftHandThumb2
									{
										OFFSET 2.507072 -1.447464 1.447461
										CHANNELS 3 Xrotation Yrotation Zrotation
										JOINT LeftHandThumb3
										{
											OFFSET 2.898338 -1.673355 1.673357
											CHANNELS 3 Xrotation Yrotation Zrotation
											End Site
											{
												OFFSET -0.295959 3.727692 -0.131651
											}
										}
									}
								}
								JOINT LeftHandIndex1
								{
									OFFSET 14.190811 -0.254547 3.840278
									CHANNELS 3 Xrotation Yrotation Zrotation
									JOINT LeftHandIndex2
									{
										OFFSET 3.551727 0.000000 -0.000000
										CHANNELS 3 Xrotation Yrotation Zrotation
										JOINT LeftHandIndex3
										{
											OFFSET 2.894196 0.000000 0.000000
											CHANNELS 3 Xrotation Yrotation Zrotation
											End Site
											{
												OFFSET -1.000603 2.690872 0.366626
											}
										}
									}
								}
								JOINT LeftHandMiddle1
								{
									OFFSET 13.776489 0.000000 0.000000
									CHANNELS 3 Xrotation Yrotation Zrotation
									JOINT LeftHandMiddle2
									{
										OFFSET 3.438232 0.000000 0.000000
										CHANNELS 3 Xrotation Yrotation Zrotation
										JOINT LeftHandMiddle3
										{
											OFFSET 3.691551 0.000000 0.000000
											CHANNELS 3 Xrotation Yrotation Zrotation
											End Site
											{
												OFFSET -1.082298 3.499527 0.457670
											}
										}
									}
								}
								JOINT LeftHandRing1
								{
									OFFSET 13.966164 -0.268127 -3.067488
									CHANNELS 3 Xrotation Yrotation Zrotation
									JOINT LeftHandRing2
									{
										OFFSET 3.162567 0.000000 0.000000
										CHANNELS 3 Xrotation Yrotation Zrotation
										JOINT LeftHandRing3
										{
											OFFSET 3.324348 0.000000 0.000000
											CHANNELS 3 Xrotation Yrotation Zrotation
											End Site
											{
												OFFSET -0.861900 3.184998 0.405154
											}
										}
									}
								}
								JOINT LeftHandPinky1
								{
									OFFSET 13.131393 -0.168503 -5.746925
									CHANNELS 3 Xrotation Yrotation Zrotation
									JOINT LeftHandPinky2
									{
										OFFSET 2.849182 0.000000 0.000000
										CHANNELS 3 Xrotation Yrotation Zrotation
										JOINT LeftHandPinky3
										{
											OFFSET 2.805038 0.000000 0.000000
											CHANNELS 3 Xrotation Yrotation Zrotation
											End Site
											{
												OFFSET -0.882500 2.642609 0.325652
											}
										}
									}
								}
							}
							JOINT Left_Sleeve
							{
								OFFSET 6.592125 -0.646545 0.805568
								CHANNELS 3 Xrotation Yrotation Zrotation
								End Site
								{
									OFFSET -0.000179 20.275787 -0.000000
								}
							}
						}
					}
				}
				JOINT RightShoulder
				{
					OFFSET -5.731700 15.108002 -2.763700
					CHANNELS 3 Xrotation Yrotation Zrotation
					JOINT RightArm
					{
						OFFSET -9.825497 2.506317 -1.597400
						CHANNELS 3 Xrotation Yrotation Zrotation
						JOINT RightForeArm
						{
							OFFSET -21.966242 0.000000 0.000000
							CHANNELS 3 Xrotation Yrotation Zrotation
							JOINT RightHand
							{
								OFFSET -33.879032 0.000000 0.000000
								CHANNELS 3 Xrotation Yrotation Zrotation
								JOINT RightHandThumb1
								{
									OFFSET -6.715286 -2.359680 3.363841
									CHANNELS 3 Xrotation Yrotation Zrotation
									JOINT RightHandThumb2
									{
										OFFSET -2.507072 -1.447464 1.447461
										CHANNELS 3 Xrotation Yrotation Zrotation
										JOINT RightHandThumb3
										{
											OFFSET -2.898338 -1.673355 1.673357
											CHANNELS 3 Xrotation Yrotation Zrotation
											End Site
											{
												OFFSET 0.295959 3.727692 -0.131651
											}
										}
									}
								}
								JOINT RightHandIndex1
								{
									OFFSET -14.190811 -0.254547 3.840278
									CHANNELS 3 Xrotation Yrotation Zrotation
									JOINT RightHandIndex2
									{
										OFFSET -3.551727 0.000000 -0.000000
										CHANNELS 3 Xrotation Yrotation Zrotation
										JOINT RightHandIndex3
										{
											OFFSET -2.894196 0.000000 0.000000
											CHANNELS 3 Xrotation Yrotation Zrotation
											End Site
											{
												OFFSET 1.000603 2.690872 0.366626
											}
										}
									}
								}
								JOINT RightHandMiddle1
								{
									OFFSET -13.776489 0.000000 0.000000
									CHANNELS 3 Xrotation Yrotation Zrotation
									JOINT RightHandMiddle2
									{
										OFFSET -3.438232 0.000000 0.000000
										CHANNELS 3 Xrotation Yrotation Zrotation
										JOINT RightHandMiddle3
										{
											OFFSET -3.691551 0.000000 0.000000
											CHANNELS 3 Xrotation Yrotation Zrotation
											End Site
											{
												OFFSET 1.082298 3.499527 0.457670
											}
										}
									}
								}
								JOINT RightHandRing1
								{
									OFFSET -13.966164 -0.268127 -3.067488
									CHANNELS 3 Xrotation Yrotation Zrotation
									JOINT RightHandRing2
									{
										OFFSET -3.162567 0.000000 0.000000
										CHANNELS 3 Xrotation Yrotation Zrotation
										JOINT RightHandRing3
										{
											OFFSET -3.324348 0.000000 0.000000
											CHANNELS 3 Xrotation Yrotation Zrotation
											End Site
											{
												OFFSET 0.861900 3.184998 0.405154
											}
										}
									}
								}
								JOINT RightHandPinky1
								{
									OFFSET -13.131393 -0.168503 -5.746925
									CHANNELS 3 Xrotation Yrotation Zrotation
									JOINT RightHandPinky2
									{
										OFFSET -2.849182 0.000000 0.000000
										CHANNELS 3 Xrotation Yrotation Zrotation
										JOINT RightHandPinky3
										{
											OFFSET -2.805038 0.000000 0.000000
											CHANNELS 3 Xrotation Yrotation Zrotation
											End Site
											{
												OFFSET 0.882500 2.642609 0.325652
											}
										}
									}
								}
							}
							JOINT Right_Sleeve
							{
								OFFSET -6.592125 -0.646545 0.805568
								CHANNELS 3 Xrotation Yrotation Zrotation
								End Site
								{
									OFFSET 0.000179 20.275787 -0.000000
								}
							}
						}
					}
				}
				JOINT Bind_Right_JacketString
				{
					OFFSET -3.534800 11.969597 7.200700
					CHANNELS 3 Xrotation Yrotation Zrotation
					JOINT Bind_Right_JacketString1
					{
						OFFSET -0.319900 -6.102600 2.794100
						CHANNELS 3 Xrotation Yrotation Zrotation
						End Site
						{
							OFFSET 0.000000 6.719452 0.000000
						}
					}
				}
				JOINT Bind_Left_JacketString
				{
					OFFSET 2.904800 11.969597 7.200700
					CHANNELS 3 Xrotation Yrotation Zrotation
					JOINT Bind_Left_JacketString1
					{
						OFFSET 0.364800 -5.904503 3.186800
						CHANNELS 3 Xrotation Yrotation Zrotation
						End Site
						{
							OFFSET 0.000000 6.719513 0.000000
						}
					}
				}
				JOINT HairE
				{
					OFFSET 5.915200 17.612701 -11.592200
					CHANNELS 3 Xrotation Yrotation Zrotation
					JOINT HairE1
					{
						OFFSET 0.289200 -7.171898 -1.284500
						CHANNELS 3 Xrotation Yrotation Zrotation
						End Site
						{
							OFFSET 0.000000 7.291756 0.000000
						}
					}
				}
				JOINT HairF
				{
					OFFSET -0.864800 17.612701 -11.592200
					CHANNELS 3 Xrotation Yrotation Zrotation
					JOINT HairF1
					{
						OFFSET 0.000000 -14.087097 -2.127501
						CHANNELS 3 Xrotation Yrotation Zrotation
						End Site
						{
							OFFSET 0.000000 14.246841 0.000000
						}
					}
				}
				JOINT HairG
				{
					OFFSET -8.087700 17.612701 -11.592200
					CHANNELS 3 Xrotation Yrotation Zrotation
					JOINT HairG1
					{
						OFFSET -0.293600 -6.081398 -0.910100
						CHANNELS 3 Xrotation Yrotation Zrotation
						End Site
						{
							OFFSET 0.000000 6.156120 0.000000
						}
					}
				}
			}
		}
	}
	JOINT Pouch
	{
		OFFSET 0.000000 4.394501 10.847300
		CHANNELS 3 Xrotation Yrotation Zrotation
		End Site
		{
			OFFSET 0.000000 21.880577 0.000000
		}
	}
	JOINT Bag
	{
		OFFSET -13.229000 4.813004 -0.593300
		CHANNELS 3 Xrotation Yrotation Zrotation
		End Site
		{
			OFFSET 0.000000 21.880577 0.000000
		}
	}
	JOINT OccupyGuyFacialAnim_Joint
	{
		OFFSET 1.000000 -70.206398 -1.655000
		CHANNELS 3 Xrotation Yrotation Zrotation
		End Site
		{
			OFFSET 0.000000 21.880577 0.000000
		}
	}
}
MOTION
Frames: 4
Frame Time: 0.033333
0.297558 59.362183 1.518469 20.900736 17.865217 3.960745 0.000000 0.000001 -0.000001 -26.532164 -0.537497 -4.025373 57.771400 -7.074986 4.102778 -45.410769 1.589405 -3.239356 0.000000 -0.000000 0.000000 0.000001 0.000000 -0.000000 -75.654836 1.146810 -18.133353 120.714755 0.684503 -0.955956 -1.834247 0.372028 -14.006801 -0.000002 -0.000000 0.000000 -0.000002 0.000000 -0.000000 14.855979 -12.088858 -1.477511 1.125365 -3.043481 -0.718810 1.161061 -3.003451 -0.698313 -7.397912 1.715568 -1.362029 -24.462881 -4.422510 3.824719 -0.000000 -0.000000 -0.000000 -0.000000 -0.000000 -0.000000 -0.000000 -0.000000 -0.000000 -0.000000 -0.000000 0.000000 0.000000 -0.000000 0.000000 -0.000000 -0.000000 0.000000 0.000000 -0.000000 0.000000 -0.000000 -0.000000 -0.000000 -0.000000 -0.000000 -0.000000 0.028189 -10.433405 -18.794046 -26.037552 -18.459783 -42.054639 0.000002 -101.391979 0.000014 34.436366 -9.775717 12.128146 -9.674875 0.269235 1.575504 18.503131 20.929771 -3.451871 -0.000001 0.000001 -0.000001 -3.849807 2.876666 -61.548289 2.994985 5.108731 -60.739923 0.000003 -0.000001 0.000001 -2.842586 4.593838 -63.952168 4.026915 5.560367 -71.804857 0.000005 0.000001 0.000001 -4.013678 6.208953 -77.776833 4.605482 5.717402 -77.688081 0.000003 0.000002 -0.000003 -0.932011 7.376124 -82.600654 4.957427 5.782660 -81.199529 0.000000 -0.000005 -0.000003 0.000000 -0.000001 -0.000001 0.742369 -3.088821 12.371816 42.308606 -15.801632 67.596982 -0.000019 65.652700 0.000003 17.591224 10.742748 -19.985644 -6.752277 7.209128 -18.581243 15.970724 -27.521518 14.722111 -0.000003 -0.000001 0.000002 -4.026023 10.918936 28.366814 3.771242 -4.572297 79.022256 0.000001 -0.000000 0.000004 -4.887186 0.191119 47.726818 2.776639 -4.261386 66.161201 -0.000000 -0.000000 -0.000003 -3.942177 -1.273052 51.126517 3.609630 -4.538100 76.987351 -0.000000 -0.000001 -0.000002 -2.239453 -3.305844 56.827143 2.160909 -3.932894 57.559302 0.000001 -0.000000 0.000000 -0.000000 -0.000001 0.000002 0.000001 -0.000000 0.000000 0.000001 -0.000000 0.000000 0.000001 -0.000000 0.000000 0.000001 -0.000000 0.000000 0.000001 -0.000000 0.000000 0.000001 -0.000000 0.000000 0.000001 -0.000000 0.000000 0.000001 -0.000000 0.000000 0.000001 -0.000000 0.000000 0.000001 -0.000000 0.000000 0.000000 0.000001 -0.000001 0.000000 0.000001 -0.000001 0.000000 0.000001 -0.000001 
0.040569 67.160019 11.390131 12.882395 12.935421 -4.686297 -0.000000 0.000000 0.000000 -4.658665 8.231157 9.838333 36.395466 -1.755517 5.809517 -20.936297 7.738518 -11.127363 0.000002 0.000000 0.000001 0.000000 0.000001 -0.000000 -82.007609 -1.563634 -13.192978 113.975681 7.046561 -0.166512 6.045099 2.172969 -8.380764 0.000003 -0.000000 0.000000 0.000002 0.000001 -0.000000 12.319913 -10.769173 0.861836 0.375097 -1.662745 1.126125 1.558450 -1.605262 1.107740 -8.305429 1.782798 -1.555715 -14.828819 0.753132 3.607524 -0.000000 -0.000000 -0.000000 -0.000000 -0.000000 -0.000000 -0.000000 -0.000000 -0.000000 -0.000000 -0.000000 0.000000 -0.000000 -0.000000 -0.000000 -0.000000 -0.000000 0.000000 -0.000000 -0.000000 -0.000000 -0.000000 -0.000000 -0.000000 -0.000000 -0.000000 -0.000000 0.863554 -10.666100 -8.238397 -40.155334 -13.714703 -49.269341 0.001335 -97.322437 0.001354 41.633285 -5.351181 10.402564 -9.674881 0.269230 1.575487 18.503122 20.929738 -3.451879 -0.000001 0.000001 -0.000005 -3.091612 3.219669 -69.706930 2.995007 5.108752 -60.739937 0.000002 -0.000001 -0.000004 -2.482311 5.798333 -72.059746 4.035749 5.563255 -71.895965 -0.000001 0.000002 0.000001 -3.655919 7.555755 -85.883461 4.620562 5.720660 -77.839220 0.000000 0.000002 -0.000002 -0.632942 8.301626 -90.758379 4.966131 5.783986 -81.286252 0.000001 -0.000001 -0.000001 0.000001 -0.000001 -0.000002 1.089639 -3.437545 6.337520 56.382764 -13.356429 64.517537 0.000013 61.555120 0.000002 11.301609 4.797093 -4.024359 -6.752284 7.209124 -18.581274 15.970721 -27.521534 14.722099 -0.000001 0.000001 0.000003 -4.582117 10.386711 32.421627 3.933503 -4.600710 81.051218 0.000001 -0.000000 0.000000 -4.931592 -0.332764 50.485623 2.929593 -4.325548 68.203974 0.000002 0.000001 0.000001 -3.973241 -1.703043 53.904912 3.772098 -4.572483 79.032631 -0.000002 0.000000 -0.000002 -2.331128 -3.556409 59.620974 2.290272 -4.012013 59.426416 0.000002 0.000002 0.000001 0.000001 -0.000001 0.000002 0.000000 -0.000000 -0.000000 0.000000 0.000000 0.000000 0.000000 -0.000000 -0.000000 0.000000 -0.000000 -0.000000 0.000000 -0.000000 -0.000000 0.000000 0.000000 -0.000000 0.000000 -0.000000 -0.000000 0.000000 -0.000000 -0.000000 0.000000 -0.000000 -0.000000 0.000000 0.000000 -0.000000 -0.000000 0.000000 0.000000 -0.000000 0.000000 0.000000 -0.000000 0.000000 0.000000 
0.146002 75.836250 21.254795 5.426635 7.464674 -12.431412 0.000000 0.000000 0.000001 12.150464 16.705038 17.634346 18.830874 -1.161494 5.203703 7.087262 13.864723 -15.665640 -0.000001 0.000001 -0.000002 -0.000002 0.000000 -0.000002 -88.586905 -4.681090 -8.635849 109.553775 8.250899 0.192718 14.036418 4.755123 -0.180871 -0.000004 0.000001 -0.000001 0.000000 -0.000000 -0.000000 9.799857 -10.251878 4.663042 -1.636408 -0.506241 4.549856 1.134275 -0.330755 4.551287 -7.750689 1.755597 -3.500353 -1.212255 5.052499 0.191032 0.000000 -0.000000 0.000000 0.000000 -0.000000 0.000000 0.000000 -0.000000 0.000000 0.000000 -0.000000 0.000000 0.000000 -0.000000 -0.000000 0.000000 -0.000000 0.000000 0.000000 -0.000000 -0.000000 0.000000 -0.000000 0.000000 0.000000 -0.000000 0.000000 1.183857 -8.720692 -1.655060 -49.626116 -7.408885 -52.975326 0.000900 -94.755795 0.000918 42.979481 -0.846207 8.475562 -9.674878 0.269248 1.575502 18.503131 20.929766 -3.451871 0.000001 -0.000002 0.000003 -1.956226 3.513606 -81.218920 2.994993 5.108747 -60.739923 -0.000001 0.000001 -0.000000 -1.347181 7.425298 -83.474208 4.050368 5.567997 -72.046748 0.000001 0.000000 0.000001 -2.145257 9.303838 -97.300942 4.645233 5.725894 -78.086588 0.000000 0.000002 -0.000002 0.797917 9.458542 -102.306350 4.978436 5.785853 -81.408232 -0.000000 -0.000001 -0.000001 0.000001 0.000002 -0.000002 1.480028 -2.830275 -1.382167 66.242542 -12.469529 62.869419 0.000009 52.555280 0.000006 0.327383 -0.013081 7.350603 -6.752275 7.209132 -18.581267 15.970727 -27.521530 14.722114 -0.000003 -0.000000 0.000003 -5.709843 8.746679 42.399929 4.332090 -4.645817 85.993147 -0.000004 0.000001 -0.000001 -4.859292 -1.648227 57.248194 3.311547 -4.458945 73.188202 0.000001 -0.000001 -0.000001 -3.894022 -2.795011 60.721283 4.172430 -4.631948 84.018970 -0.000000 -0.000001 -0.000002 -2.439795 -4.254991 66.479659 2.617854 -4.187831 64.005983 0.000000 -0.000001 -0.000001 -0.000002 0.000001 -0.000001 0.000001 0.000000 -0.000000 0.000001 -0.000000 -0.000000 0.000001 0.000000 -0.000000 0.000001 0.000000 -0.000000 0.000001 0.000000 -0.000000 0.000001 -0.000000 -0.000000 0.000001 0.000000 -0.000000 0.000001 0.000000 -0.000000 0.000001 0.000000 -0.000000 0.000001 -0.000000 -0.000000 0.000000 0.000000 0.000001 0.000000 0.000000 0.000001 0.000000 0.000000 0.000001 
0.390404 84.928368 31.085760 -0.787170 3.084057 -16.038812 0.000000 0.000000 -0.000000 19.168309 20.341729 19.540814 26.111893 0.902070 4.914989 13.577094 20.497365 -22.125329 -0.000002 -0.000002 0.000002 0.000001 0.000001 -0.000002 -96.907557 -4.490106 -6.527774 109.152092 8.022176 0.363455 20.972104 4.704179 8.434420 -0.000002 0.000000 -0.000000 0.000000 -0.000000 -0.000000 8.484641 -10.952056 6.955768 -3.615220 0.281615 7.948106 0.853661 0.599898 7.988539 -5.812879 1.508917 -6.114271 12.998013 7.123945 -4.881508 -0.000000 0.000000 0.000000 -0.000000 0.000000 0.000000 -0.000000 0.000000 0.000000 -0.000000 0.000000 0.000001 -0.000000 0.000000 0.000000 -0.000000 0.000000 0.000001 -0.000000 0.000000 0.000000 -0.000000 0.000000 0.000000 -0.000000 0.000000 0.000000 0.863323 -5.844537 0.905722 -53.618887 -1.410487 -53.311775 0.003638 -92.994815 0.003658 39.008658 2.148651 9.270988 -9.674884 0.269232 1.575498 18.267954 19.972235 -3.624268 0.000001 0.000002 -0.000007 -2.530838 3.198607 -78.321554 2.996070 5.109352 -60.752115 0.000001 0.000000 -0.000002 -1.260775 7.078334 -80.324773 4.089404 5.580444 -72.448616 0.000002 0.000000 -0.000001 -1.157465 8.729098 -94.026153 4.688726 5.734855 -78.522286 -0.000000 0.000000 -0.000001 2.521255 9.393630 -99.367969 5.019445 5.791861 -81.814731 -0.000002 0.000001 0.000003 -0.000001 0.000003 -0.000002 2.060390 -1.879037 -8.301619 69.381977 -12.635053 61.951223 -0.000006 39.012449 -0.000006 -11.046902 -5.045636 14.803971 -6.752279 7.209119 -18.581258 15.970719 -27.521523 14.722097 0.000001 -0.000001 0.000001 -6.507671 6.089418 55.026774 4.830041 -4.653953 92.129792 0.000000 -0.000001 -0.000002 -4.390909 -3.293029 65.761410 3.800950 -4.577959 79.394481 0.000004 -0.000001 0.000001 -3.462839 -4.179815 69.309597 4.674992 -4.657153 90.219381 -0.000001 -0.000003 -0.000003 -2.299566 -5.246678 75.127047 3.047658 -4.370790 69.761155 -0.000000 -0.000001 -0.000001 -0.000000 -0.000003 0.000001 0.000000 -0.000000 0.000000 0.000000 -0.000001 0.000000 0.000000 -0.000000 0.000000 0.000000 -0.000000 0.000000 0.000000 -0.000000 0.000000 0.000000 -0.000001 0.000000 0.000000 -0.000000 0.000000 0.000000 -0.000000 0.000000 0.000000 -0.000000 0.000000 0.000000 -0.000001 0.000000 0.000000 0.000000 -0.000000 0.000000 0.000000 -0.000000 0.000000 0.000000 -0.000000 
